<svg width="32" height="32" viewBox="0 0 32 32" fill="none" xmlns="http://www.w3.org/2000/svg">
<path d="M29 28L26 30.5V29H6V30.5L3 28L6 25.5V27H26V25.5L29 28Z" fill="#181616"/>
<path fill-rule="evenodd" clip-rule="evenodd" d="M23.8252 6H20.5107L21.2764 8.11426L22.873 12.1064C23.2381 12.0371 23.6147 12 24 12C27.3137 12 30 14.6863 30 18C30 21.3137 27.3137 24 24 24C20.6863 24 18 21.3137 18 18C18 15.7842 19.2016 13.8497 20.9883 12.8105L20.2354 10.9277L20.2275 10.9102L16.0986 19H13.915C13.4388 21.8376 10.9729 24 8 24C4.68629 24 2 21.3137 2 18C2 14.6863 4.68629 12 8 12C8.1263 12 8.25162 12.005 8.37598 12.0127L10.2744 8.51758L10.5576 7.99414H18.998L17.3389 4.00391H23.8252V6ZM8 14C5.79086 14 4 15.7909 4 18C4 20.2091 5.79086 22 8 22C9.86384 22 11.43 20.7252 11.874 19H8V17H11.874C11.43 15.2748 9.86384 14 8 14ZM24 14C23.8775 14 23.7564 14.0058 23.6367 14.0166L25.2021 17.9316L23.4287 18.9141L21.7422 14.6973C20.6901 15.4179 20 16.6285 20 18C20 20.2091 21.7909 22 24 22C26.2091 22 28 20.2091 28 18C28 15.7909 26.2091 14 24 14ZM11.748 9.99414L10.3896 12.4961C12.2202 13.292 13.5749 14.9733 13.915 17H14.874L18.4502 9.99414H11.748Z" fill="#181616"/>
<path d="M13.9775 6.00391H7.27051L10.7705 4.00391H13.9775V6.00391Z" fill="#181616"/>
</svg>
