<svg width="24" height="24" viewBox="0 0 24 24" fill="none" xmlns="http://www.w3.org/2000/svg">
<g clip-path="url(#clip0_3131_25)">
<mask id="mask0_3131_25" style="mask-type:luminance" maskUnits="userSpaceOnUse" x="0" y="0" width="24" height="24">
<path d="M0 0H24V24H0V0Z" fill="white"/>
</mask>
<g mask="url(#mask0_3131_25)">
<path d="M20.5714 12C20.5714 7.26614 16.7339 3.42857 12 3.42857C7.26614 3.42857 3.42857 7.26614 3.42857 12C3.42857 16.0198 6.19594 19.3928 9.92935 20.319V14.6193H8.16185V12H9.92935V10.8713C9.92935 7.95391 11.2496 6.60168 14.1139 6.60168C14.6569 6.60168 15.5939 6.70814 15.9772 6.81463V9.18905C15.7749 9.16776 15.4235 9.1571 14.9869 9.1571C13.5815 9.1571 13.0384 9.68948 13.0384 11.0737V12H15.8382L15.3572 14.6193H13.0384V20.5087C17.2825 19.996 20.5714 16.3823 20.5714 12Z" fill="#181616"/>
</g>
</g>
<defs>
<clipPath id="clip0_3131_25">
<rect width="24" height="24" fill="white"/>
</clipPath>
</defs>
</svg>
