<svg width="32" height="32" viewBox="0 0 32 32" fill="none" xmlns="http://www.w3.org/2000/svg">
<path d="M27 15.4C27 14.326 26.1034 13.084 24.0381 12.0514C22.0326 11.0487 19.192 10.4 16 10.4C12.808 10.4 9.96736 11.0487 7.96191 12.0514C5.89665 13.084 5 14.326 5 15.4C5 16.4181 5.80181 17.587 7.66602 18.5943C9.26703 19.4594 11.4707 20.0913 14 20.3131V19.0338L17.9434 21.4L14 23.7662V22.318C11.1849 22.0916 8.6413 21.395 6.71484 20.3541C4.61893 19.2216 3 17.5272 3 15.4C3 13.1604 4.78962 11.4022 7.06738 10.2633C9.40507 9.09443 12.5647 8.39999 16 8.39999C19.4353 8.39999 22.5949 9.09443 24.9326 10.2633C27.2104 11.4022 29 13.1604 29 15.4C29 16.7767 28.3094 17.9835 27.2783 18.9498C26.25 19.9135 24.8287 20.6964 23.1865 21.2691L22.5283 19.3805C23.9945 18.8691 25.1443 18.2084 25.9102 17.4908C26.6733 16.7757 27 16.0621 27 15.4Z" fill="#181616"/>
</svg>
