<svg width="32" height="32" viewBox="0 0 32 32" fill="none" xmlns="http://www.w3.org/2000/svg">
<path fill-rule="evenodd" clip-rule="evenodd" d="M19.2607 13C19.7707 13 20.2075 13.0843 20.5713 13.252C20.9385 13.4195 21.2185 13.6527 21.4111 13.9521C21.6037 14.2482 21.7001 14.5908 21.7002 14.9795C21.7002 15.2363 21.6506 15.4666 21.5508 15.6699C21.4545 15.8696 21.3314 16.0409 21.1816 16.1836C21.0355 16.3226 20.8871 16.4277 20.7373 16.499C21.1118 16.6631 21.4146 16.9079 21.6465 17.2324C21.8819 17.5534 22 17.9226 22 18.3398C22 18.825 21.8891 19.2481 21.668 19.6084C21.4504 19.9685 21.1367 20.2485 20.7266 20.4482C20.3164 20.648 19.8278 20.748 19.2607 20.748C18.7008 20.748 18.2172 20.648 17.8105 20.4482C17.4039 20.2485 17.0893 19.9687 16.8682 19.6084C16.6506 19.2481 16.542 18.825 16.542 18.3398C16.542 17.9157 16.6508 17.5485 16.8682 17.2383C17.0893 16.928 17.3946 16.6868 17.7832 16.5156C17.6335 16.4407 17.4837 16.3334 17.334 16.1943C17.1879 16.0554 17.067 15.886 16.9707 15.6865C16.878 15.4832 16.8311 15.247 16.8311 14.9795C16.8311 14.5908 16.9275 14.2482 17.1201 13.9521C17.3127 13.6527 17.5892 13.4196 17.9492 13.252C18.3131 13.0843 18.7506 13 19.2607 13ZM19.2607 17.2588C19.0183 17.2588 18.8059 17.3022 18.624 17.3877C18.4457 17.4733 18.3059 17.5963 18.2061 17.7568C18.1098 17.9173 18.0616 18.1045 18.0615 18.3184C18.0615 18.5253 18.1097 18.7096 18.2061 18.8701C18.3059 19.0306 18.447 19.1573 18.6289 19.25C18.8108 19.3392 19.0218 19.3838 19.2607 19.3838C19.496 19.3837 19.7049 19.3391 19.8867 19.25C20.0685 19.1573 20.211 19.0305 20.3145 18.8701C20.4179 18.7096 20.4697 18.5253 20.4697 18.3184C20.4697 18.1045 20.4179 17.9173 20.3145 17.7568C20.2111 17.5964 20.0685 17.4733 19.8867 17.3877C19.7049 17.3021 19.496 17.2588 19.2607 17.2588ZM19.2607 14.3271C18.9719 14.3271 18.7465 14.3997 18.5859 14.5459C18.4254 14.6922 18.3457 14.8765 18.3457 15.0977C18.3457 15.3259 18.4241 15.5153 18.5811 15.665C18.7416 15.8111 18.9684 15.8838 19.2607 15.8838C19.5388 15.8837 19.7621 15.8112 19.9297 15.665C20.1008 15.5153 20.1865 15.3259 20.1865 15.0977C20.1865 14.8765 20.1009 14.6921 19.9297 14.5459C19.7585 14.3997 19.5353 14.3272 19.2607 14.3271Z" fill="#181616"/>
<path d="M12.665 13C13.1786 13 13.6177 13.1001 13.9814 13.2998C14.3486 13.4959 14.6264 13.7616 14.8154 14.0967C15.008 14.4283 15.1044 14.7976 15.1045 15.2041C15.1045 15.6357 15.032 15.9985 14.8857 16.291C14.7431 16.5798 14.5464 16.8273 14.2969 17.0342C14.0473 17.241 13.7673 17.4376 13.457 17.623C13.1254 17.8192 12.8504 17.9941 12.6328 18.1475C12.4152 18.3008 12.2381 18.4563 12.1025 18.6133C11.9707 18.7666 11.8655 18.943 11.7871 19.1426H15.1689V20.6191H10C10 20.0523 10.0641 19.5548 10.1924 19.127C10.3208 18.6955 10.4994 18.3154 10.7275 17.9873C10.9594 17.6591 11.2294 17.3711 11.5361 17.125C11.8463 16.8755 12.1783 16.6531 12.5312 16.457C12.7096 16.3536 12.8786 16.244 13.0391 16.1299C13.1995 16.0158 13.3298 15.8877 13.4297 15.7451C13.5331 15.6025 13.5849 15.4383 13.585 15.2529C13.585 14.9997 13.503 14.8032 13.3389 14.6641C13.1748 14.5214 12.9589 14.4502 12.6914 14.4502C12.4096 14.4502 12.1685 14.5214 11.9688 14.6641C11.7691 14.8032 11.6072 14.9998 11.4824 15.2529L10.1182 14.627C10.3358 14.124 10.6759 13.7274 11.1396 13.4385C11.6034 13.146 12.1122 13 12.665 13Z" fill="#181616"/>
<path fill-rule="evenodd" clip-rule="evenodd" d="M10.5 8H21.5V6H23.5V8H26V26H6V8H8.5V6H10.5V8ZM8 24H24V10H8V24Z" fill="#181616"/>
</svg>
