<svg width="32" height="32" viewBox="0 0 32 32" fill="none" xmlns="http://www.w3.org/2000/svg">
<path d="M17.5654 3.87934C19.5588 2.72863 22.2482 3.00848 23.4092 5.01899C23.9633 5.97878 24.052 7.02911 23.7334 8.00043H28V15.0004H26V26.0004H6V15.0004H4V8.00043H8.20117C7.8826 7.02911 7.97126 5.97877 8.52539 5.01899C9.68641 3.00848 12.3758 2.72865 14.3691 3.87934C15.1869 4.35146 15.6719 5.15046 15.9668 5.91938C16.2617 5.15035 16.7476 4.35153 17.5654 3.87934ZM8 24.0004H15V15.0004H8V24.0004ZM21.9639 10.0102C21.5334 10.0227 20.135 10.0196 18.873 10.0141C18.2361 10.0113 17.6248 10.0081 17.1729 10.0053C17.1123 10.0049 17.0545 10.0037 17 10.0034V13.0004H26V10.0004H21.9873L21.9639 10.0102ZM6 13.0004H15V10.0034C14.9269 10.0038 14.847 10.0048 14.7617 10.0053C14.3097 10.0081 13.6985 10.0113 13.0615 10.0141C11.7996 10.0196 10.4012 10.0227 9.9707 10.0102L9.94727 10.0004H6V13.0004ZM21.6768 6.01899C21.2308 5.2473 19.9111 4.83488 18.5654 5.61176C18.1316 5.86222 17.7945 6.53066 17.6025 7.44086C17.5617 7.63468 17.5304 7.82393 17.5068 8.00043H21.499C22.0143 7.33378 22.0265 6.62474 21.6768 6.01899ZM13.3691 5.61176C12.0235 4.8349 10.7038 5.24729 10.2578 6.01899C9.90809 6.62473 9.92026 7.33378 10.4355 8.00043H14.4277C14.4042 7.82393 14.3729 7.63469 14.332 7.44086C14.14 6.53066 13.803 5.86222 13.3691 5.61176ZM24 15.0004H17V24.0004H24V15.0004Z" fill="#181616"/>
</svg>
