<svg width="24" height="24" viewBox="0 0 24 24" fill="none" xmlns="http://www.w3.org/2000/svg">
<path d="M19.6172 19V21H4.38282V19H19.6172ZM10.2481 4.18652C11.0079 2.80497 12.9921 2.80497 13.752 4.18652L21.3701 18.0361C22.1032 19.369 21.1384 21 19.6172 21V19L12 5.15039L4.38282 19V21L4.24122 20.9951C2.80261 20.8979 1.91984 19.3273 2.6299 18.0361L10.2481 4.18652Z" fill="#181616"/>
<path d="M12 15C11.4477 15 11 14.5523 11 14L11 9.5C11 8.94771 11.4477 8.5 12 8.5C12.5523 8.5 13 8.94772 13 9.5L13 14C13 14.5523 12.5523 15 12 15ZM12 18C11.4477 18 11 17.5523 11 17C11 16.4477 11.4477 16 12 16C12.5523 16 13 16.4477 13 17C13 17.5523 12.5523 18 12 18Z" fill="#181616"/>
</svg>
