<svg width="24" height="24" viewBox="0 0 24 24" fill="none" xmlns="http://www.w3.org/2000/svg">
<path d="M14 15C14 16.1046 13.1046 17 12 17C10.8954 17 10 16.1046 10 15C10 13.8954 10.8954 13 12 13C13.1046 13 14 13.8954 14 15Z" fill="#181616"/>
<path d="M12 1C14.7614 1 17 3.23858 17 6V8H18C19.1046 8 20 8.89543 20 10H6V18C6 19.1046 6.89543 20 8 20H16C17.1046 20 18 19.1046 18 18V13L20 11V18C20 20.2091 18.2091 22 16 22H8C5.85996 22 4.11211 20.3194 4.00488 18.2061L4 18V10C4 8.89543 4.89543 8 6 8H7V6C7 3.23858 9.23858 1 12 1ZM12 3C10.3431 3 9 4.34315 9 6V8H15V6C15 4.34315 13.6569 3 12 3Z" fill="#181616"/>
</svg>
