<svg width="24" height="24" viewBox="0 0 24 24" fill="none" xmlns="http://www.w3.org/2000/svg">
<path d="M8.27255 3.06302C7.31495 3.1082 6.66101 3.26102 6.08933 3.48566C5.49767 3.71624 4.99619 4.02566 4.49723 4.52642C3.99827 5.02718 3.69101 5.52902 3.46205 6.12158C3.24047 6.69452 3.09035 7.349 3.04805 8.30714C3.00575 9.26528 2.99639 9.57326 3.00107 12.0173C3.00575 14.4613 3.01655 14.7677 3.06299 15.7278C3.10871 16.6852 3.26099 17.339 3.48563 17.9109C3.71657 18.5025 4.02563 19.0038 4.52657 19.503C5.02751 20.0021 5.52899 20.3086 6.12299 20.538C6.69539 20.7592 7.35005 20.91 8.30801 20.952C9.26597 20.9939 9.57431 21.0036 12.0176 20.9989C14.461 20.9943 14.7686 20.9835 15.7285 20.9379C16.6885 20.8924 17.3388 20.739 17.9108 20.5155C18.5025 20.284 19.0042 19.9755 19.5029 19.4743C20.0017 18.9732 20.3088 18.471 20.5376 17.8781C20.7593 17.3057 20.91 16.651 20.9516 15.6938C20.9935 14.7331 21.0034 14.4264 20.9987 11.9827C20.9941 9.53906 20.9831 9.2327 20.9375 8.27294C20.892 7.31318 20.7395 6.6614 20.5151 6.08918C20.2838 5.49752 19.9751 4.99658 19.4743 4.49708C18.9736 3.99758 18.471 3.69068 17.8783 3.46244C17.3055 3.24086 16.6512 3.08984 15.6932 3.04844C14.7353 3.00704 14.4269 2.99642 11.9827 3.0011C9.53849 3.00578 9.23249 3.01622 8.27255 3.06302ZM8.37767 19.3329C7.50017 19.2947 7.02371 19.1489 6.70619 19.0269C6.28571 18.8649 5.98619 18.669 5.66975 18.3556C5.35331 18.0423 5.15891 17.7417 4.99475 17.3221C4.87145 17.0046 4.72295 16.5286 4.68191 15.6511C4.63727 14.7027 4.62791 14.418 4.62269 12.0151C4.61747 9.61232 4.62665 9.32792 4.66823 8.37914C4.70567 7.50236 4.85237 7.02536 4.97423 6.70802C5.13623 6.287 5.33135 5.98802 5.64545 5.67176C5.95955 5.3555 6.25925 5.16074 6.67919 4.99658C6.99635 4.87274 7.47227 4.7255 8.34941 4.68374C9.29855 4.63874 9.58295 4.62974 11.9854 4.62452C14.3879 4.6193 14.673 4.6283 15.6225 4.67006C16.4993 4.70822 16.9765 4.85348 17.2934 4.97606C17.7141 5.13806 18.0134 5.33264 18.3297 5.64728C18.646 5.96192 18.8409 6.26054 19.0051 6.68138C19.1291 6.99764 19.2763 7.47338 19.3177 8.35106C19.3629 9.3002 19.3732 9.58478 19.3775 11.9871C19.3818 14.3893 19.3733 14.6746 19.3318 15.6231C19.2934 16.5006 19.148 16.9772 19.0258 17.2951C18.8638 17.7154 18.6685 18.0151 18.3542 18.3312C18.0399 18.6472 17.7406 18.842 17.3204 19.0062C17.0036 19.1298 16.5272 19.2774 15.6508 19.3192C14.7016 19.3638 14.4172 19.3732 12.0139 19.3784C9.61049 19.3836 9.32699 19.3739 8.37785 19.3329M15.7147 7.18988C15.715 7.4035 15.7787 7.61221 15.8977 7.78963C16.0167 7.96704 16.1856 8.10519 16.3831 8.18659C16.5806 8.26799 16.7978 8.289 17.0072 8.24695C17.2167 8.2049 17.4089 8.10168 17.5597 7.95035C17.7105 7.79902 17.813 7.60638 17.8543 7.39679C17.8956 7.1872 17.8738 6.97007 17.7916 6.77287C17.7095 6.57567 17.5708 6.40725 17.3929 6.28892C17.2151 6.17059 17.0061 6.10765 16.7925 6.10808C16.5061 6.10865 16.2317 6.22294 16.0296 6.4258C15.8275 6.62867 15.7142 6.90351 15.7147 7.18988ZM7.37885 12.009C7.38389 14.5614 9.45677 16.6258 12.0086 16.621C14.5605 16.6161 16.6264 14.5434 16.6215 11.991C16.6166 9.43862 14.5432 7.37366 11.991 7.3787C9.43877 7.38374 7.37399 9.45698 7.37885 12.009ZM8.99993 12.0058C8.99876 11.4124 9.17356 10.832 9.50224 10.338C9.83091 9.84403 10.2987 9.45858 10.8464 9.23043C11.3942 9.00228 11.9973 8.94167 12.5794 9.05628C13.1616 9.17088 13.6967 9.45555 14.1171 9.87429C14.5375 10.293 14.8243 10.827 14.9412 11.4087C15.0581 11.9905 14.9999 12.5938 14.7739 13.1424C14.548 13.6911 14.1644 14.1604 13.6717 14.491C13.179 14.8216 12.5993 14.9987 12.0059 14.9999C11.6119 15.0007 11.2217 14.9239 10.8574 14.7739C10.493 14.6239 10.1619 14.4036 9.88272 14.1255C9.60358 13.8475 9.38194 13.5172 9.23047 13.1535C9.079 12.7898 9.00066 12.3998 8.99993 12.0058Z" fill="#181616"/>
</svg>
