<svg width="32" height="32" viewBox="0 0 32 32" fill="none" xmlns="http://www.w3.org/2000/svg">
<path fill-rule="evenodd" clip-rule="evenodd" d="M27 26H8.5L12 24V15.9316H19.9785V24H25.0215L25.0059 12.6631C24.5468 12.8795 24.0354 13 23.5 13C22.5457 13 21.6517 12.6063 21.0059 11.9541C20.3645 12.6061 19.4713 13 18.5 13C17.5457 13 16.6517 12.6063 16.0059 11.9541C15.3645 12.6061 14.4713 13 13.5 13C12.5457 13 11.6517 12.6063 11.0059 11.9541C10.3645 12.6061 9.47126 13 8.5 13C7.96242 13 7.4444 12.874 6.97852 12.6484V26H5V6H27V26ZM13.9785 24H18V18H13.9785V24ZM7 9.5C7 10.3975 7.60254 11 8.5 11C9.32197 11 9.91284 10.4943 10.0068 9.71973C10.0024 9.6472 10 9.57395 10 9.5V8H6.98828L7 9.5ZM12 9.5C12 10.3975 12.6025 11 13.5 11C14.322 11 14.9128 10.4943 15.0068 9.71973C15.0024 9.6472 15 9.57395 15 9.5V8H12V9.5ZM17 9.5C17 10.3975 17.6025 11 18.5 11C19.322 11 19.9128 10.4943 20.0068 9.71973C20.0024 9.6472 20 9.57395 20 9.5V8H17V9.5ZM22 9.5C22 10.3975 22.6025 11 23.5 11C24.3081 11 24.893 10.5112 25.002 9.75879L25 8H22V9.5Z" fill="#181616"/>
</svg>
