<svg width="32" height="32" viewBox="0 0 32 32" fill="none" xmlns="http://www.w3.org/2000/svg">
<path fill-rule="evenodd" clip-rule="evenodd" d="M10.7706 6.00404H13.9772V8.00405L7.27057 8.00407L10.7706 6.00404Z" fill="#181616"/>
<path fill-rule="evenodd" clip-rule="evenodd" d="M23.8252 8H20.5107L21.2764 10.1143L22.873 14.1064C23.2381 14.0371 23.6147 14 24 14C27.3137 14 30 16.6863 30 20C30 23.3137 27.3137 26 24 26C20.6863 26 18 23.3137 18 20C18 17.7842 19.2016 15.8497 20.9883 14.8105L20.2354 12.9277L20.2275 12.9102L16.0986 21H13.915C13.4388 23.8376 10.9729 26 8 26C4.68629 26 2 23.3137 2 20C2 16.6863 4.68629 14 8 14C8.1263 14 8.25162 14.005 8.37598 14.0127L10.2744 10.5176L10.5576 9.99414H18.998L17.3389 6.00391H23.8252V8ZM8 16C5.79086 16 4 17.7909 4 20C4 22.2091 5.79086 24 8 24C9.86384 24 11.43 22.7252 11.874 21H8V19H11.874C11.43 17.2748 9.86384 16 8 16ZM24 16C23.8775 16 23.7564 16.0058 23.6367 16.0166L25.2021 19.9316L23.4287 20.9141L21.7422 16.6973C20.6901 17.4179 20 18.6285 20 20C20 22.2091 21.7909 24 24 24C26.2091 24 28 22.2091 28 20C28 17.7909 26.2091 16 24 16ZM11.748 11.9941L10.3896 14.4961C12.2202 15.292 13.5749 16.9733 13.915 19H14.874L18.4502 11.9941H11.748Z" fill="#181616"/>
</svg>
