<svg width="32" height="32" viewBox="0 0 32 32" fill="none" xmlns="http://www.w3.org/2000/svg">
<path fill-rule="evenodd" clip-rule="evenodd" d="M20 11H26.499L30 18V23H26.8262C26.4141 24.1647 25.3059 25 24 25C22.6941 25 21.5859 24.1647 21.1738 23H13.8262C13.4141 24.1647 12.3059 25 11 25C9.69415 25 8.58594 24.1647 8.17383 23H4.5V15H6.5V21H8.17383C8.58594 19.8353 9.69415 19 11 19C12.3059 19 13.4141 19.8353 13.8262 21H18V9H4.5V7H20V11ZM11 21C10.4477 21 10 21.4477 10 22C10 22.5523 10.4477 23 11 23C11.5523 23 12 22.5523 12 22C12 21.4477 11.5523 21 11 21ZM24 21C23.4477 21 23 21.4477 23 22C23 22.5523 23.4477 23 24 23C24.5523 23 25 22.5523 25 22C25 21.4477 24.5523 21 24 21ZM20 21H21.1738C21.5859 19.8353 22.6941 19 24 19C25.3059 19 26.4141 19.8353 26.8262 21H28V18.5L25.3643 13H20V21Z" fill="#181616"/>
<path d="M7.70703 13H1L4.5 11H7.70703V13Z" fill="#181616"/>
</svg>
