<svg preserveAspectRatio="none" width="100%" height="100%" overflow="visible" style="display: block;" viewBox="0 0 51 34" fill="none" xmlns="http://www.w3.org/2000/svg">
<g id="Group">
<path id="Vector" d="M46.75 0H4.25C1.90279 0 0 1.90279 0 4.25V29.75C0 32.0972 1.90279 34 4.25 34H46.75C49.0972 34 51 32.0972 51 29.75V4.25C51 1.90279 49.0972 0 46.75 0Z" fill="var(--fill-0, #016FD0)"/>
<path id="Vector_2" fill-rule="evenodd" clip-rule="evenodd" d="M29.2489 28.4619V16.3465L50.8124 16.3658V19.7125L48.3201 22.376L50.8124 25.0638V28.4815H46.8331L44.7183 26.1479L42.6186 28.4903L29.2489 28.4619Z" fill="var(--fill-0, #FFFFFE)"/>
<path id="Vector_3" fill-rule="evenodd" clip-rule="evenodd" d="M30.6891 27.1337V17.6798H38.7052V19.8577H33.2845V21.3361H38.5759V23.4777H33.2845V24.9297H38.7052V27.1337H30.6891Z" fill="var(--fill-0, #016FD0)"/>
<path id="Vector_4" fill-rule="evenodd" clip-rule="evenodd" d="M38.6646 27.1335L43.1002 22.4011L38.6644 17.6798H42.0977L44.8081 20.6762L47.5262 17.6798H50.8118V17.7542L46.4707 22.4011L50.8118 26.9994V27.1335H47.4932L44.7347 24.1071L42.0045 27.1335H38.6646Z" fill="var(--fill-0, #016FD0)"/>
<path id="Vector_5" fill-rule="evenodd" clip-rule="evenodd" d="M30.2544 5.59283H35.4523L37.278 9.73839V5.59283H43.6951L44.8017 8.69866L45.9121 5.59283H50.8122V17.7083H24.9159L30.2544 5.59283Z" fill="var(--fill-0, #FFFFFE)"/>
<g id="Group_2">
<path id="Vector_6" fill-rule="evenodd" clip-rule="evenodd" d="M31.2387 6.90915L27.0439 16.3551H29.921L30.7124 14.4635H35.0005L35.7913 16.3551H38.7399L34.5626 6.90915H31.2387ZM31.5992 12.3437L32.8572 9.33667L34.1143 12.3437H31.5992Z" fill="var(--fill-0, #016FD0)"/>
<path id="Vector_7" fill-rule="evenodd" clip-rule="evenodd" d="M38.7007 16.3533V6.90752L42.7449 6.92142L44.8258 12.7285L46.9203 6.90752H50.8124V16.3533L48.3079 16.3755V9.88712L45.9437 16.3533H43.6576L41.2443 9.86495V16.3533H38.7007Z" fill="var(--fill-0, #016FD0)"/>
</g>
</g>
</svg>
