<svg preserveAspectRatio="none" width="100%" height="100%" overflow="visible" style="display: block;" viewBox="0 0 29 18" fill="none" xmlns="http://www.w3.org/2000/svg">
<g id="Union">
<path fill-rule="evenodd" clip-rule="evenodd" d="M19 4H25.499L29 11V16H25.8262C25.4141 17.1647 24.3059 18 23 18C21.6941 18 20.5859 17.1647 20.1738 16H12.8262C12.4141 17.1647 11.3059 18 10 18C8.69415 18 7.58594 17.1647 7.17383 16H3.5V8H5.5V14H7.17383C7.58594 12.8353 8.69415 12 10 12C11.3059 12 12.4141 12.8353 12.8262 14H17V2H3.5V0H19V4ZM10 14C9.44772 14 9 14.4477 9 15C9 15.5523 9.44772 16 10 16C10.5523 16 11 15.5523 11 15C11 14.4477 10.5523 14 10 14ZM23 14C22.4477 14 22 14.4477 22 15C22 15.5523 22.4477 16 23 16C23.5523 16 24 15.5523 24 15C24 14.4477 23.5523 14 23 14ZM19 14H20.1738C20.5859 12.8353 21.6941 12 23 12C24.3059 12 25.4141 12.8353 25.8262 14H27V11.5L24.3643 6H19V14Z" fill="var(--fill-0, #181616)"/>
<path d="M6.70703 6H0L3.5 4H6.70703V6Z" fill="var(--fill-0, #181616)"/>
</g>
</svg>
