<svg preserveAspectRatio="none" width="100%" height="100%" overflow="visible" style="display: block;" viewBox="0 0 51.0001 35.0623" fill="none" xmlns="http://www.w3.org/2000/svg">
<g id="Diners-Club">
<path id="shape" d="M46.7442 33.4686L46.7487 33.4686C48.7783 33.486 50.4434 31.8267 50.4688 29.7588L50.4688 4.26339C50.4606 3.26334 50.0626 2.30811 49.3632 1.6082C48.6656 0.910071 47.7252 0.523066 46.7442 0.531401L4.25137 0.531381C3.27484 0.523066 2.33449 0.910071 1.63686 1.6082C0.937451 2.30811 0.539424 3.26334 0.531285 4.25906L0.531268 29.7366C0.539424 30.7367 0.937451 31.6919 1.63686 32.3918C2.33449 33.0899 3.27484 33.4769 4.2559 33.4686H46.7442ZM46.742 34.5311C46.7412 34.5311 46.7404 34.5311 46.7396 34.5311L46.7442 34.5311H46.742Z" fill="var(--fill-0, white)" stroke="var(--stroke-0, black)" stroke-opacity="0.2" stroke-width="1.0625"/>
<path id="shape_2" d="M21.2542 4.36001V4.32601H29.7542V4.36001C36.417 4.84757 41.5737 10.3954 41.5737 17.076C41.5737 23.7566 36.417 29.3045 29.7542 29.792V29.826H21.2542V29.792C14.5914 29.3045 9.43469 23.7566 9.43469 17.076C9.43469 10.3954 14.5914 4.84757 21.2542 4.36001Z" fill="var(--fill-0, #0165AC)"/>
<path id="shape_3" d="M24.6545 24.2841C27.7045 23.1998 29.7419 20.3131 29.7419 17.0761C29.7419 13.8391 27.7045 10.9525 24.6545 9.86813V24.2841ZM19.5545 9.86813C16.5045 10.9525 14.4672 13.8391 14.4672 17.0761C14.4672 20.3131 16.5045 23.1998 19.5545 24.2841V9.86813ZM22.1045 28.1261C16.0018 28.1261 11.0545 23.1789 11.0545 17.0761C11.0545 10.9734 16.0018 6.02613 22.1045 6.02613C28.2073 6.02613 33.1545 10.9734 33.1545 17.0761C33.1545 23.1789 28.2073 28.1261 22.1045 28.1261Z" fill="var(--fill-0, white)"/>
</g>
</svg>
