<svg preserveAspectRatio="none" width="100%" height="100%" overflow="visible" style="display: block;" viewBox="0 0 51.0001 35.0623" fill="none" xmlns="http://www.w3.org/2000/svg">
<g id="Discover">
<path id="shape" d="M46.7442 33.4686L46.7487 33.4686C48.7783 33.486 50.4434 31.8267 50.4688 29.7588L50.4688 4.26339C50.4606 3.26334 50.0626 2.30811 49.3632 1.6082C48.6656 0.910071 47.7252 0.523066 46.7442 0.531401L4.25137 0.531381C3.27484 0.523066 2.33449 0.910071 1.63686 1.6082C0.937451 2.30811 0.539424 3.26334 0.531285 4.25906L0.531268 29.7366C0.539424 30.7367 0.937451 31.6919 1.63686 32.3918C2.33449 33.0899 3.27484 33.4769 4.2559 33.4686H46.7442ZM46.742 34.5311C46.7412 34.5311 46.7404 34.5311 46.7396 34.5311L46.7442 34.5311H46.742Z" fill="var(--fill-0, white)" stroke="var(--stroke-0, black)" stroke-opacity="0.2" stroke-width="1.0625"/>
<path id="shape_2" d="M26.8011 33.9997H46.7439C47.8633 34.0091 48.9406 33.5734 49.7387 32.7884C50.5368 32.0035 50.9904 30.9336 50.9997 29.8142V24.8021C43.4691 29.1251 35.3019 32.2293 26.8011 33.9997Z" fill="var(--fill-0, #F27712)"/>
<path id="shape_3" d="M49.2413 19.755H47.43L45.39 17.0643H45.1965V19.755H43.7193V13.0722H45.9C47.6058 13.0722 48.5907 13.7756 48.5907 15.0418C48.5907 16.0794 47.9751 16.7477 46.8672 16.9587L49.2413 19.755ZM47.0607 15.0946C47.0607 14.4439 46.5682 14.1098 45.6538 14.1098H45.1965V16.1322H45.6186C46.5682 16.1322 47.0607 15.7805 47.0607 15.0946ZM38.5489 13.0722H42.7345V14.1977H40.0262V15.6925H42.6289V16.8356H40.0262V18.647H42.7345V19.7725H38.5489V13.0722ZM33.8007 19.9308L30.6 13.0546H32.2179L34.2403 17.5567L36.2803 13.0546H37.8631L34.6272 19.9308H33.8358H33.8007ZM20.4176 19.9132C18.1665 19.9132 16.4079 18.3832 16.4079 16.396C16.4079 14.4615 18.2017 12.8963 20.4527 12.8963C21.0858 12.8963 21.6134 13.0194 22.2641 13.3008V14.8484C21.7714 14.3643 21.1083 14.0928 20.4176 14.0922C19.0107 14.0922 17.9379 15.1122 17.9379 16.396C17.9379 17.7501 18.9931 18.7174 20.4879 18.7174C21.1562 18.7174 21.6662 18.5063 22.2641 17.9787V19.5263C21.5958 19.8077 21.0331 19.9132 20.4176 19.9132ZM15.9507 17.715C15.9507 19.0163 14.8779 19.9132 13.3303 19.9132C12.2048 19.9132 11.3958 19.5263 10.71 18.647L11.6772 17.8205C12.0114 18.4184 12.5741 18.7174 13.2776 18.7174C13.9458 18.7174 14.4207 18.3129 14.4207 17.7853C14.4207 17.4863 14.28 17.2577 13.981 17.0818C13.6532 16.9228 13.3118 16.7933 12.961 16.695C11.5717 16.2553 11.0969 15.7805 11.0969 14.8484C11.0969 13.7581 12.1169 12.9315 13.4534 12.9315C14.2976 12.9315 15.0538 13.1953 15.6869 13.6877L14.9131 14.567C14.6064 14.2308 14.1723 14.0393 13.7172 14.0394C13.0841 14.0394 12.6269 14.356 12.6269 14.7781C12.6269 15.1298 12.8907 15.3232 13.77 15.6222C15.4583 16.1498 15.9507 16.6422 15.9507 17.7325V17.715ZM8.68756 13.0722H10.1648V19.7725H8.68756V13.0722ZM3.93929 19.7725H1.7586V13.0722H3.93929C6.33101 13.0722 7.98411 14.4439 7.98411 16.4136C7.98411 17.416 7.4917 18.3656 6.62998 18.9987C5.89136 19.5263 5.0648 19.7725 3.9217 19.7725H3.93929ZM5.66274 14.7429C5.17032 14.356 4.60756 14.2153 3.64032 14.2153H3.23584V18.647H3.64032C4.58998 18.647 5.18791 18.4712 5.66274 18.1194C6.17273 17.6974 6.4717 17.0643 6.4717 16.4136C6.4717 15.7629 6.17273 15.1474 5.66274 14.7429Z" fill="var(--fill-0, black)"/>
<path id="shape_4" d="M26.3793 12.8963C24.4448 12.8963 22.862 14.4439 22.862 16.3608C22.862 18.4008 24.3744 19.9308 26.3793 19.9308C28.3489 19.9308 29.8965 18.3832 29.8965 16.4136C29.8965 14.4439 28.3665 12.8963 26.3793 12.8963Z" fill="var(--fill-0, #F27712)"/>
</g>
</svg>
