<svg preserveAspectRatio="none" width="100%" height="100%" overflow="visible" style="display: block;" viewBox="0 0 51 35.0623" fill="none" xmlns="http://www.w3.org/2000/svg">
<g id="Group">
<path id="Vector" d="M46.7441 33.4685H46.7487C48.7783 33.486 50.4435 31.8268 50.4688 29.7589V4.26339C50.4607 3.26334 50.0627 2.30811 49.3631 1.6082C48.6655 0.910071 47.7252 0.523066 46.7441 0.5314L4.25138 0.531381C3.27483 0.523066 2.3345 0.910071 1.63686 1.6082C0.937451 2.30811 0.539423 3.26334 0.531285 4.25905L0.531268 29.7366C0.539423 30.7366 0.937451 31.6918 1.63686 32.3918C2.3345 33.0899 3.27483 33.4768 4.2559 33.4685H46.7441ZM46.7419 34.531C46.7411 34.531 46.7405 34.531 46.7396 34.531H46.7441H46.7419Z" fill="var(--fill-0, white)" stroke="var(--stroke-0, black)" stroke-opacity="0.2" stroke-width="1.0625"/>
<path id="Vector_2" fill-rule="evenodd" clip-rule="evenodd" d="M9.94164 12.2232C10.4596 12.0544 11.001 11.9689 11.5457 11.9699C13.9941 11.9699 16.0378 13.6729 16.5057 15.9379L19.975 15.2444C19.179 11.3952 15.7085 8.5 11.5463 8.5C10.5923 8.5 9.67691 8.65196 8.81877 8.93299L9.94164 12.2232Z" fill="var(--fill-0, #FFCA05)"/>
<path id="Vector_3" fill-rule="evenodd" clip-rule="evenodd" d="M5.91304 23.3751L8.28782 20.7501C7.22765 19.8316 6.55889 18.4917 6.55889 16.9991C6.55889 15.5066 7.22646 14.1672 8.28601 13.25L5.91183 10.625C4.11115 12.1845 2.97502 14.4621 2.97502 16.9991C2.97502 19.5367 4.11115 21.8149 5.91304 23.3751Z" fill="var(--fill-0, #00A4DF)"/>
<path id="Vector_4" fill-rule="evenodd" clip-rule="evenodd" d="M16.5063 18.0625C16.0366 20.3269 13.9953 22.0287 11.5494 22.0287C11.0037 22.0298 10.4613 21.9437 9.94285 21.7737L8.81877 25.0675C9.67629 25.3484 10.5941 25.4999 11.5487 25.4999C15.7061 25.4999 19.176 22.6069 19.975 18.7602L16.5063 18.0625Z" fill="var(--fill-0, #EE4123)"/>
<path id="Vector_5" fill-rule="evenodd" clip-rule="evenodd" d="M29.7962 19.7918L29.7937 19.7942L29.6955 19.7279C29.412 20.1886 28.9717 20.5625 28.4139 20.8049C27.3544 21.2675 26.3726 21.1487 25.6678 20.5275L25.6032 20.6264C25.6021 20.6252 25.6021 20.6246 25.6008 20.6246L24.3983 22.4314C24.6975 22.6401 25.0177 22.8162 25.3541 22.9571C26.6827 23.512 28.0414 23.486 29.3801 22.901C30.3491 22.4796 31.1084 21.8368 31.6282 21.022L29.7962 19.7918ZM26.0422 15.3335C24.9236 15.816 24.3464 16.8707 24.4652 18.1069L29.2052 16.0578C28.3899 15.0953 27.3297 14.7769 26.0422 15.3335ZM22.8955 20.8381C22.7612 20.6141 22.6411 20.3819 22.5361 20.1428C21.9892 18.8673 21.9632 17.5479 22.4246 16.2809C22.9322 14.8915 23.9021 13.8277 25.1558 13.2862C26.7315 12.6048 28.4736 12.7392 29.9836 13.6396C30.9431 14.192 31.6233 15.0459 32.1397 16.2526C32.206 16.407 32.2631 16.5722 32.3199 16.7127L22.8955 20.8375V20.8381ZM35.6136 10.625V20.671L37.1689 21.3043L36.2855 23.3751L34.5692 22.6575C34.1839 22.4892 33.9215 22.2329 33.7232 21.9435C33.5332 21.6479 33.3915 21.2439 33.3915 20.6982V10.625H35.6136ZM39.642 18.1117C39.6411 18.5169 39.7268 18.9175 39.8931 19.2869C40.0595 19.6563 40.3028 19.9859 40.6069 20.2537L39.0136 22.0423C38.4586 21.5487 38.0146 20.9429 37.7112 20.2649C37.408 19.5868 37.252 18.8521 37.2539 18.1093C37.2533 17.3669 37.4103 16.6328 37.7146 15.9556C38.0189 15.2785 38.4634 14.6736 39.0191 14.1811L40.6142 15.9679C40.3086 16.2353 40.0638 16.5649 39.8961 16.9346C39.7285 17.3044 39.6418 17.7058 39.642 18.1117ZM42.4763 20.9629C43.8463 20.9641 44.9897 19.989 45.2562 18.6919L47.598 19.1719C47.1094 21.5655 44.9999 23.3653 42.474 23.363C41.91 23.3628 41.3498 23.271 40.8154 23.091L41.5779 20.8158C41.8601 20.9099 42.1627 20.9623 42.4763 20.9629ZM42.4835 12.8653C45.0114 12.8671 47.1186 14.6744 47.6003 17.0709L45.2581 17.5473C45.1296 16.9048 44.783 16.3266 44.2768 15.9106C43.7706 15.4946 43.1363 15.2664 42.4812 15.2648C42.1754 15.2649 41.872 15.3141 41.5819 15.4107L40.8269 13.133C41.3611 12.9547 41.9204 12.8642 42.4835 12.8653Z" fill="var(--fill-0, black)"/>
</g>
</svg>
