<svg preserveAspectRatio="none" width="100%" height="100%" overflow="visible" style="display: block;" viewBox="0 0 22 20" fill="none" xmlns="http://www.w3.org/2000/svg">
<path id="Union" fill-rule="evenodd" clip-rule="evenodd" d="M22 20H3.5L7 18V9.93164H14.9785V18H20.0215L20.0059 6.66309C19.5468 6.87949 19.0354 7 18.5 7C17.5457 7 16.6517 6.60626 16.0059 5.9541C15.3645 6.60612 14.4713 7 13.5 7C12.5457 7 11.6517 6.60626 11.0059 5.9541C10.3645 6.60612 9.47126 7 8.5 7C7.5457 7 6.65171 6.60626 6.00586 5.9541C5.36449 6.60612 4.47126 7 3.5 7C2.96242 7 2.4444 6.87399 1.97852 6.64844V20H0V0H22V20ZM8.97852 18H13V12H8.97852V18ZM2 3.5C2 4.39746 2.60254 5 3.5 5C4.32197 5 4.91284 4.49427 5.00684 3.71973C5.00243 3.6472 5 3.57395 5 3.5V2H1.98828L2 3.5ZM7 3.5C7 4.39746 7.60254 5 8.5 5C9.32197 5 9.91284 4.49427 10.0068 3.71973C10.0024 3.6472 10 3.57395 10 3.5V2H7V3.5ZM12 3.5C12 4.39746 12.6025 5 13.5 5C14.322 5 14.9128 4.49427 15.0068 3.71973C15.0024 3.6472 15 3.57395 15 3.5V2H12V3.5ZM17 3.5C17 4.39746 17.6025 5 18.5 5C19.3081 5 19.893 4.51121 20.002 3.75879L20 2H17V3.5Z" fill="var(--fill-0, #181616)"/>
</svg>
