<svg preserveAspectRatio="none" width="100%" height="100%" overflow="visible" style="display: block;" viewBox="0 0 49.3268 33.966" fill="none" xmlns="http://www.w3.org/2000/svg">
<g id="Group">
<path id="Vector" d="M9.65998 6.676e-05H21.9718C23.6904 6.676e-05 24.7593 1.5421 24.3584 3.44025L18.6264 30.531C18.2218 32.4225 16.5011 33.9658 14.7813 33.9658H2.47073C0.754522 33.9658 -0.316797 32.4225 0.0841224 30.531L5.81853 3.44025C6.21945 1.5421 7.93927 6.676e-05 9.65998 6.676e-05" fill="var(--fill-0, #DD2423)"/>
<path id="Vector_2" d="M20.9471 0.000237165H35.1053C36.8236 0.000237165 36.0488 1.54227 35.6445 3.44042L29.9134 30.5311C29.5113 32.4227 29.6368 33.966 27.9148 33.966H13.7566C12.0347 33.966 10.9691 32.4227 11.3736 30.5311L17.1044 3.44042C17.5113 1.54227 19.2275 0.000237165 20.9471 0.000237165" fill="var(--fill-0, #16315E)"/>
<path id="Vector_3" d="M34.5439 0.000237165H46.8556C48.5767 0.000237165 49.6456 1.54227 49.2414 3.44042L43.5102 30.5311C43.1057 32.4227 41.3838 33.966 39.6631 33.966H27.357C25.6351 33.966 24.5671 32.4227 24.9704 30.5311L30.7024 3.44042C31.1034 1.54227 32.822 0.000237165 34.5439 0.000237165" fill="var(--fill-0, #036862)"/>
<path id="Vector_4" d="M12.8756 8.68195C11.6095 8.69615 11.2356 8.68195 11.1162 8.6509C11.0703 8.89106 10.2159 13.2294 10.2135 13.2331C10.0296 14.1108 9.89571 14.7365 9.44108 15.1405C9.183 15.3753 8.88171 15.4887 8.5324 15.4887C7.97094 15.4887 7.64384 15.1818 7.58892 14.5997L7.57842 14.3998C7.57842 14.3998 7.74947 13.2242 7.74947 13.2175C7.74947 13.2175 8.64614 9.26401 8.80669 8.74141C8.81509 8.71168 8.81749 8.69615 8.81959 8.68195C7.07427 8.6988 6.76488 8.68195 6.74357 8.6509C6.73187 8.69351 6.68865 8.93863 6.68865 8.93863L5.77308 13.3946L5.69446 13.7725L5.54231 15.0087C5.54231 15.3753 5.60773 15.6746 5.73797 15.9277C6.1551 16.7301 7.34495 16.8503 8.01805 16.8503C8.88531 16.8503 9.69885 16.6475 10.2486 16.2772C11.2029 15.6565 11.4526 14.6863 11.6752 13.8241L11.7785 13.3817C11.7785 13.3817 12.7021 9.27558 12.8591 8.74141C12.8651 8.71168 12.8675 8.69615 12.8756 8.68195V8.68195ZM16.0183 11.9944C15.7957 11.9944 15.3888 12.0539 15.0233 12.2511C14.8906 12.3261 14.7652 12.4126 14.6328 12.4989L14.7523 12.0242L14.6868 11.9442C13.9117 12.117 13.7383 12.1401 13.0223 12.2511L12.9622 12.295C12.8791 13.0538 12.8053 13.6243 12.4971 15.1158C12.3798 15.6655 12.2579 16.2205 12.1358 16.7689L12.1688 16.8386C12.9025 16.7959 13.1252 16.7959 13.7629 16.8075L13.8145 16.7457C13.8955 16.2889 13.906 16.1818 14.0855 15.2566C14.1698 14.8179 14.3456 13.8539 14.4324 13.5107C14.5917 13.4294 14.749 13.3495 14.899 13.3495C15.2564 13.3495 15.2129 13.6927 15.1991 13.8295C15.1838 14.0591 15.0536 14.8089 14.92 15.4528L14.8309 15.8683C14.7688 16.1752 14.7007 16.4735 14.6385 16.7778L14.6655 16.8386C15.3888 16.7959 15.6093 16.7959 16.2269 16.8075L16.2995 16.7457C16.4112 16.0322 16.4439 15.8413 16.6419 14.8023L16.7416 14.325C16.9351 13.3908 17.0323 12.9171 16.8859 12.5312C16.7311 12.0988 16.3595 11.9944 16.0183 11.9944V11.9944ZM19.5292 12.9725C19.1447 13.0538 18.8996 13.108 18.6559 13.143C18.4143 13.1856 18.1788 13.2243 17.8072 13.2811L17.7778 13.3105L17.7508 13.3339C17.7121 13.6385 17.6851 13.9018 17.6338 14.2113C17.5903 14.5314 17.5234 14.8951 17.4144 15.4177C17.3301 15.8178 17.2866 15.9572 17.2386 16.0979C17.1918 16.2386 17.1401 16.3754 17.0453 16.7688L17.0675 16.8052L17.0861 16.8385C17.4333 16.8204 17.6605 16.8075 17.894 16.8052C18.1271 16.7959 18.3687 16.8052 18.7426 16.8075L18.7753 16.7781L18.8104 16.7457C18.8645 16.3909 18.8726 16.2954 18.9056 16.1223C18.9383 15.9367 18.9947 15.6797 19.133 14.9932C19.1985 14.6708 19.2714 14.3494 19.3392 14.0204C19.4097 13.6927 19.4835 13.3699 19.5538 13.0475L19.5433 13.0085L19.5292 12.9725ZM19.5373 11.6537C19.188 11.4268 18.575 11.4988 18.1623 11.8123C17.7509 12.1195 17.7041 12.5556 18.0522 12.7855C18.3955 13.0062 19.011 12.9404 19.42 12.6243C19.8305 12.3105 19.8818 11.8784 19.5373 11.6537V11.6537ZM21.6498 16.9097C22.3565 16.9097 23.081 16.6953 23.6262 16.059C24.0457 15.543 24.2381 14.7753 24.3047 14.4592C24.5217 13.4113 24.3527 12.9221 24.1406 12.6241C23.8183 12.1699 23.2487 12.0242 22.6578 12.0242C22.3025 12.0242 21.4563 12.0629 20.7952 12.7338C20.3204 13.2177 20.1011 13.8745 19.9687 14.5041C19.8352 15.1456 19.6815 16.3005 20.6463 16.7303C20.944 16.871 21.3731 16.9097 21.6498 16.9097V16.9097ZM21.5946 14.552C21.7576 13.7585 21.9499 13.0925 22.4409 13.0925C22.8256 13.0925 22.8535 13.5881 22.6824 14.3842C22.6518 14.5609 22.5114 15.218 22.3214 15.4978C22.1888 15.7042 22.0318 15.8294 21.8584 15.8294C21.8068 15.8294 21.4998 15.8294 21.495 15.3276C21.4926 15.0799 21.5385 14.8268 21.5946 14.552ZM26.0713 16.8076L26.1266 16.7458C26.2049 16.289 26.2178 16.1816 26.3912 15.2567C26.478 14.818 26.6574 13.854 26.7417 13.5108C26.9014 13.4292 27.0559 13.3493 27.2108 13.3493C27.5658 13.3493 27.5226 13.6925 27.5085 13.8292C27.4956 14.0592 27.3653 14.8087 27.2294 15.4525L27.1451 15.8681C27.0805 16.1753 27.0103 16.4733 26.9482 16.7779L26.9752 16.8387C27.7008 16.796 27.913 16.796 28.5342 16.8076L28.6092 16.7458C28.7181 16.032 28.7475 15.841 28.9516 14.8024L29.0488 14.3248C29.2433 13.3905 29.3417 12.9172 29.1977 12.5313C29.0383 12.0989 28.6644 11.9945 28.328 11.9945C28.105 11.9945 27.696 12.0537 27.3326 12.2512C27.2027 12.3262 27.0724 12.4124 26.9446 12.499L27.0559 12.0243L26.9962 11.944C26.2214 12.1171 26.0443 12.1402 25.3292 12.2512L25.2743 12.2951C25.1876 13.0539 25.1171 13.6241 24.8089 15.1159C24.6915 15.6656 24.5697 16.2206 24.4479 16.769L24.4806 16.8387C25.2155 16.796 25.4349 16.796 26.0713 16.8076V16.8076ZM31.4026 16.8385C31.4482 16.5934 31.7192 15.1405 31.7216 15.1405C31.7216 15.1405 31.9523 14.0745 31.9665 14.0359C31.9665 14.0359 32.0391 13.9249 32.1117 13.8809H32.2185C33.2265 13.8809 34.3648 13.8809 35.2569 13.1585C35.864 12.663 36.279 11.9313 36.4642 11.042C36.5122 10.824 36.5476 10.5646 36.5476 10.3053C36.5476 9.96474 36.4855 9.62779 36.306 9.3645C35.8511 8.66385 34.9451 8.65096 33.8993 8.64568C33.896 8.64568 33.3838 8.65096 33.3838 8.65096C32.0451 8.66913 31.5082 8.66385 31.2877 8.63412C31.269 8.74148 31.2339 8.93242 31.2339 8.93242C31.2339 8.93242 30.7544 11.3789 30.7544 11.3829C30.7544 11.3829 29.6068 16.5845 29.5528 16.8296C30.7217 16.814 31.2009 16.814 31.4026 16.8385V16.8385ZM32.2911 12.4925C32.2911 12.4925 32.801 10.051 32.7986 10.0602L32.8151 9.935L32.8223 9.83954L33.0261 9.86266C33.0261 9.86266 34.0776 9.96209 34.1022 9.96473C34.5172 10.1415 34.6883 10.597 34.5688 11.1916C34.4599 11.735 34.1397 12.1919 33.7283 12.4126C33.3895 12.5995 32.9745 12.6151 32.5468 12.6151H32.2701L32.2911 12.4925ZM35.4656 14.5972C35.3309 15.2295 35.176 16.3844 36.136 16.796C36.4421 16.9393 36.7164 16.982 36.9952 16.9664C37.2896 16.9489 37.5623 16.7864 37.815 16.5525C37.7922 16.6486 37.7694 16.7448 37.7466 16.8412L37.7901 16.903C38.4806 16.871 38.6949 16.871 39.443 16.8772L39.5108 16.8204C39.6201 16.1135 39.723 15.427 40.0069 14.0746C40.1452 13.4268 40.2833 12.7853 40.4252 12.1401L40.403 12.0691C39.6306 12.2267 39.4241 12.2604 38.6811 12.3763L38.6247 12.4269C38.6172 12.4926 38.6094 12.5557 38.6021 12.6188C38.4866 12.4133 38.3192 12.2379 38.0608 12.1286C37.7304 11.9855 36.9544 12.1699 36.2873 12.8385C35.8185 13.3158 35.5935 13.9699 35.4656 14.5972V14.5972ZM37.0879 14.6359C37.2532 13.8566 37.4432 13.1972 37.9353 13.1972C38.2465 13.1972 38.4104 13.5134 38.3771 14.0525C38.3507 14.1869 38.3222 14.3287 38.2883 14.4889C38.239 14.7204 38.1856 14.95 38.1337 15.1799C38.0809 15.3372 38.0194 15.4855 37.9519 15.5843C37.8252 15.7818 37.5239 15.9044 37.3505 15.9044C37.3013 15.9044 36.9976 15.9044 36.9871 15.4115C36.9847 15.1661 37.0306 14.9134 37.0879 14.6359ZM45.5596 12.0628L45.4999 11.9878C44.7355 12.1583 44.5972 12.1854 43.895 12.2897L43.8434 12.3466C43.841 12.3558 43.8389 12.37 43.8353 12.3829L43.8329 12.37C43.3101 13.6977 43.3254 13.4113 42.8999 14.4565C42.8975 14.4089 42.8975 14.3792 42.8951 14.3286L42.7885 12.0628L42.7216 11.9878C41.921 12.1583 41.9021 12.1854 41.1627 12.2897L41.105 12.3466C41.0969 12.3737 41.0969 12.4034 41.0921 12.4358L41.0969 12.4473C41.1894 12.9673 41.1672 12.8513 41.2599 13.6719C41.3031 14.0746 41.3607 14.4796 41.4039 14.8773C41.4769 15.543 41.5177 15.8707 41.6068 16.8865C41.1074 17.7936 40.9892 18.1368 40.5085 18.9329L40.5118 18.9409L40.1733 19.5302C40.1346 19.5923 40.0994 19.6349 40.0502 19.6531C39.9962 19.6825 39.926 19.6878 39.8285 19.6878H39.6409L39.3621 20.7085L40.3185 20.7267C40.88 20.724 41.2329 20.435 41.4228 20.0465L42.0242 18.9121H42.0146L42.0779 18.8322C42.4825 17.8735 45.5596 12.0628 45.5596 12.0628V12.0628ZM35.4656 25.4689H35.0599L36.5615 20.0014H37.0597L37.2178 19.4382L37.2331 20.0645C37.2145 20.4517 37.4912 20.7949 38.218 20.7381H39.0586L39.3478 19.6853H39.0315C38.8497 19.6853 38.7654 19.6347 38.7759 19.5264L38.7606 18.8892H37.204V18.8925C36.7008 18.904 35.1979 18.9456 34.8936 19.0348C34.5254 19.1392 34.1374 19.4464 34.1374 19.4464L34.2898 18.8826H32.8338L32.5304 20.0014L31.0087 25.5525H30.7134L30.4238 26.5977H33.3238L33.2266 26.9462H34.6556L34.7505 26.5977H35.1514L35.4656 25.4689ZM34.2757 21.1124C34.0426 21.1834 33.6086 21.3988 33.6086 21.3988L33.9945 20.0014H35.1514L34.8723 21.0195C34.8723 21.0195 34.5149 21.0427 34.2757 21.1124ZM34.2979 23.1086C34.2979 23.1086 33.9345 23.1588 33.6954 23.2183C33.4598 23.2969 33.0181 23.5447 33.0181 23.5447L33.4166 22.0905H34.5794L34.2979 23.1086ZM33.6497 25.4818H32.4893L32.8257 24.2546H33.9825L33.6497 25.4818ZM36.4444 22.0905H38.1171L37.8767 22.9474H36.1818L35.9273 23.8843H37.4103L36.2874 25.6248C36.2088 25.7527 36.1383 25.7979 36.0599 25.8339C35.9813 25.8779 35.8781 25.9294 35.7587 25.9294H35.3472L35.0645 26.9555H36.1407C36.7 26.9555 37.0304 26.6753 37.2744 26.3077L38.0444 25.1475L38.2098 26.3255C38.2449 26.5462 38.3889 26.6753 38.4865 26.7255C38.5942 26.785 38.7055 26.8871 38.8628 26.9023C39.0314 26.9102 39.1533 26.9165 39.2343 26.9165H39.763L40.0805 25.7682H39.872C39.7522 25.7682 39.5461 25.7461 39.511 25.7048C39.4759 25.6546 39.4759 25.5773 39.457 25.4597L39.2892 24.279H38.6023L38.9036 23.8843H40.5952L40.8554 22.9474H39.2892L39.5332 22.0905H41.0945L41.3841 21.0337H36.7291L36.4444 22.0905ZM22.3167 25.7204L22.7071 24.2907H24.3117L24.6049 23.2273H22.9988L23.244 22.3473H24.8134L25.1042 21.3176H21.1772L20.8925 22.3473H21.7846L21.5467 23.2273H20.6521L20.3556 24.3089H21.2475L20.7271 26.2004C20.6569 26.4508 20.7601 26.5463 20.8255 26.6625C20.8925 26.7758 20.9603 26.8508 21.1127 26.8935C21.27 26.9321 21.3777 26.9552 21.5241 26.9552H23.3331L23.6554 25.7772L22.8535 25.8985C22.6987 25.8985 22.2699 25.878 22.3167 25.7204V25.7204ZM22.5007 18.8761L22.0941 19.6851C22.0071 19.8619 21.9288 19.9715 21.8582 20.0221C21.7961 20.0647 21.6731 20.0825 21.4948 20.0825H21.2827L20.9991 21.1175H21.7037C22.0425 21.1175 22.3027 20.9807 22.4269 20.9123C22.5604 20.8337 22.5956 20.8786 22.6988 20.769L22.9368 20.542H25.137L25.429 19.4645H23.8184L24.0996 18.8761H22.5007ZM25.749 25.7412C25.7115 25.6817 25.7385 25.577 25.7958 25.359L26.3972 23.1678H28.5365C28.8483 23.1629 29.0734 23.1589 29.2199 23.1473C29.3771 23.1292 29.5482 23.0674 29.7345 22.9564C29.9269 22.8401 30.0253 22.7176 30.1084 22.5768C30.2011 22.4364 30.35 22.1292 30.4778 21.6555L31.2338 18.8826L29.0137 18.8968C29.0137 18.8968 28.3301 19.0078 28.0291 19.1304C27.7254 19.2671 27.2915 19.649 27.2915 19.649L27.4919 18.8889H26.1205L24.2006 25.8984C24.1324 26.1706 24.0868 26.3682 24.0763 26.4868C24.0727 26.6146 24.2228 26.7411 24.32 26.8366C24.4349 26.9321 24.6048 26.9165 24.7677 26.9321C24.9391 26.9463 25.1827 26.9552 25.5191 26.9552H26.5731L26.8966 25.7527L25.9531 25.8509C25.8522 25.8509 25.7793 25.7914 25.749 25.7412ZM26.7852 21.6879H29.0323L28.8895 22.1808C28.8693 22.1923 28.8213 22.1563 28.5927 22.186H26.6469L26.7852 21.6879ZM27.2354 20.0349H29.5013L29.3384 20.6285C29.3384 20.6285 28.2704 20.6169 28.0993 20.6516C27.3467 20.795 26.9071 21.2376 26.9071 21.2376L27.2354 20.0349ZM28.9397 23.8312C28.9211 23.9049 28.8917 23.9498 28.8506 23.9835C28.805 24.0159 28.7312 24.0275 28.6211 24.0275H28.3009L28.3198 23.4272H26.988L26.934 26.3617C26.9319 26.5734 26.9505 26.696 27.0912 26.7941C27.2319 26.9166 27.6656 26.9322 28.2492 26.9322H29.0838L29.3851 25.8338L28.6586 25.8777L28.417 25.8932C28.384 25.8777 28.3525 25.8635 28.3174 25.8249C28.2868 25.7915 28.2351 25.812 28.2435 25.6002L28.2492 24.848L29.0112 24.8134C29.4226 24.8134 29.5984 24.666 29.7485 24.5256C29.8916 24.3912 29.9384 24.2366 29.9925 24.0275L30.1203 23.3615H29.0733L28.9397 23.8312Z" fill="var(--fill-0, #FEFEFE)"/>
</g>
</svg>
