<svg width="16" height="16" viewBox="0 0 16 16" fill="none" xmlns="http://www.w3.org/2000/svg">
<path d="M11.5 2C12.8807 2 14 3.11929 14 4.5C14 5.88071 12.8807 7 11.5 7C10.8348 7 10.2321 6.73817 9.78418 6.31445L6.93848 7.95703C6.97726 8.132 7 8.31336 7 8.5C7 8.68278 6.97865 8.8606 6.94141 9.03223L9.80371 10.667C10.2496 10.2542 10.8445 10 11.5 10C12.8807 10 14 11.1193 14 12.5C14 13.8807 12.8807 15 11.5 15C10.1193 15 9 13.8807 9 12.5C9 12.3173 9.02041 12.1393 9.05762 11.9678L6.19531 10.333C5.7495 10.7455 5.15528 11 4.5 11C3.11929 11 2 9.88071 2 8.5C2 7.11929 3.11929 6 4.5 6C5.15105 6 5.74166 6.25139 6.18652 6.65918L9.05078 5.00586C9.01722 4.84251 9 4.67327 9 4.5C9 3.11929 10.1193 2 11.5 2Z" fill="#181616"/>
</svg>
