<svg width="24" height="24" viewBox="0 0 24 24" fill="none" xmlns="http://www.w3.org/2000/svg">
<g clip-path="url(#clip0_8519_293)">
<path d="M21.8004 11.9016C22.18 12.2939 22.1747 12.9181 21.7887 13.3041L13.3034 21.7894C12.9174 22.1751 12.2938 22.18 11.9016 21.8004L2.4054 12.608C2.18904 12.3985 2.07876 12.1022 2.10501 11.8022L2.81212 3.72155C2.85442 3.23811 3.23811 2.85442 3.72155 2.81212L11.8022 2.10501C12.1022 2.07876 12.3985 2.18904 12.608 2.4054L21.8004 11.9016ZM4.73111 4.73042L4.13864 11.5018L12.5852 19.6791L19.6798 12.5846L11.5025 4.13795L4.73111 4.73042Z" fill="#181616"/>
<circle cx="9.10101" cy="9.1012" r="2" fill="#181616"/>
</g>
<defs>
<clipPath id="clip0_8519_293">
<rect width="24" height="24" fill="white"/>
</clipPath>
</defs>
</svg>
