<svg width="32" height="32" viewBox="0 0 32 32" fill="none" xmlns="http://www.w3.org/2000/svg">
<path d="M6.8877 9.83691C5.69628 11.5947 5.00001 13.7145 5 16C5.00003 22.0751 9.92489 27 16 27C17.3025 27 18.5506 26.7721 19.709 26.3574L19.125 25.3457L23.75 25.418L21.4375 29.4229L20.7109 28.1191C19.2495 28.6876 17.6604 29 16 29C8.82032 29 3.00003 23.1797 3 16C3.00001 13.3018 3.82351 10.7924 5.23242 8.71387L6.8877 9.83691Z" fill="#181616"/>
<path d="M11.2861 3.87598C12.7574 3.30333 14.3532 3 16.0273 3C23.2377 3 29 8.82902 29 16.0039C29 18.6985 28.2001 21.183 26.7891 23.2646L25.1328 22.1416C26.3222 20.3868 27 18.2931 27 16.0039C27 9.92396 22.1235 5 16.0273 5C14.7049 5 13.4497 5.22199 12.2871 5.6377L12.874 6.6543L8.25 6.58203L10.5625 2.57715L11.2861 3.87598Z" fill="#181616"/>
<path fill-rule="evenodd" clip-rule="evenodd" d="M23 16H22V22H10V16H9V10H23V16ZM12 20H20V16H12V20ZM11 14H21V12H11V14Z" fill="#181616"/>
</svg>
