<svg width="24" height="24" viewBox="0 0 24 24" fill="none" xmlns="http://www.w3.org/2000/svg">
<path fill-rule="evenodd" clip-rule="evenodd" d="M12 5C15.866 5 19 8.13401 19 12C19 15.866 15.866 19 12 19C8.13401 19 5 15.866 5 12C5 8.13401 8.13401 5 12 5ZM21 12C21 7.02944 16.9706 3 12 3C7.02944 3 3 7.02944 3 12C3 16.9706 7.02944 21 12 21C16.9706 21 21 16.9706 21 12Z" fill="#181616"/>
<path fill-rule="evenodd" clip-rule="evenodd" d="M15.5 13H3.53223V11H18.5L15.5 13Z" fill="#181616"/>
<path fill-rule="evenodd" clip-rule="evenodd" d="M13.3685 20.4956C13.3684 20.4959 13.3682 20.4961 12.5 20C11.6318 19.5039 11.6316 19.5041 11.6315 19.5043L11.6332 19.5013L11.6455 19.4791C11.6572 19.4577 11.6757 19.4235 11.6999 19.3771C11.7485 19.2842 11.8203 19.1426 11.9077 18.957C12.0825 18.5855 12.3186 18.04 12.5555 17.359C13.0309 15.9923 13.5 14.1065 13.5 12C13.5 9.89352 13.0309 8.00766 12.5555 6.64102C12.3186 5.96002 12.0825 5.41451 11.9077 5.04298C11.8203 4.85739 11.7485 4.71574 11.6999 4.62287C11.6757 4.57645 11.6572 4.54227 11.6455 4.52093L11.6332 4.49866L11.6315 4.4957C11.6316 4.49591 11.6318 4.49614 12.5 4C13.3682 3.50386 13.3684 3.5041 13.3685 3.50437L13.3697 3.50638L13.3718 3.5102L13.3783 3.52169L13.3994 3.55987C13.417 3.592 13.4415 3.63741 13.4719 3.69548C13.5327 3.81159 13.6172 3.97854 13.7173 4.19139C13.9175 4.61673 14.1814 5.22747 14.4445 5.98397C14.9691 7.49233 15.5 9.60647 15.5 12C15.5 14.3935 14.9691 16.5077 14.4445 18.016C14.1814 18.7725 13.9175 19.3833 13.7173 19.8086C13.6172 20.0215 13.5327 20.1884 13.4719 20.3045C13.4415 20.3626 13.417 20.408 13.3994 20.4401L13.3783 20.4783L13.3718 20.4898L13.3697 20.4936L13.3685 20.4956ZM11.6315 19.5043C11.6314 19.5045 11.6314 19.5045 11.6315 19.5043V19.5043ZM11.6315 4.4957C11.6314 4.4955 11.6314 4.49549 11.6315 4.4957V4.4957Z" fill="#181616"/>
<path fill-rule="evenodd" clip-rule="evenodd" d="M10.6859 3.41929C10.6861 3.41902 10.6863 3.41877 11.5 4.00001C12.3137 4.58124 12.3139 4.58102 12.314 4.5808L12.3147 4.57994L12.3121 4.58352L12.297 4.6055C12.2825 4.62662 12.2596 4.66054 12.2294 4.70665C12.1691 4.79891 12.0798 4.93971 11.9713 5.12421C11.754 5.49372 11.4608 6.03556 11.1671 6.71123C10.5767 8.06909 10 9.9299 10 12C10 14.0701 10.5767 15.9309 11.1671 17.2888C11.4608 17.9645 11.754 18.5063 11.9713 18.8758C12.0798 19.0603 12.1691 19.2011 12.2294 19.2934C12.2596 19.3395 12.2825 19.3734 12.297 19.3945L12.3121 19.4165L12.314 19.4192C12.3139 19.419 12.3137 19.4188 11.5 20C10.6863 20.5812 10.6861 20.581 10.6859 20.5807L10.6844 20.5787L10.6817 20.5748L10.6735 20.5632L10.6469 20.5247C10.6247 20.4923 10.5939 20.4467 10.5557 20.3883C10.4794 20.2716 10.3733 20.1038 10.2474 19.8898C9.99605 19.4625 9.66416 18.8481 9.33293 18.0862C8.6733 16.5691 8 14.4299 8 12C8 9.57012 8.6733 7.43092 9.33293 5.91378C9.66416 5.15196 9.99604 4.53754 10.2474 4.11017C10.3733 3.89624 10.4794 3.72845 10.5557 3.61173C10.5939 3.55334 10.6247 3.50767 10.6469 3.47532L10.6735 3.43685L10.6817 3.42523L10.6844 3.42135L10.6859 3.41929ZM12.3147 4.57994C12.3148 4.57975 12.3148 4.57972 12.3147 4.57994V4.57994ZM12.3147 19.4201C12.3148 19.4203 12.3148 19.4203 12.3147 19.4201V19.4201Z" fill="#181616"/>
</svg>
