<svg width="24" height="24" viewBox="0 0 24 24" fill="none" xmlns="http://www.w3.org/2000/svg">
<path d="M20.6251 7.96773C20.4177 7.19279 19.8087 6.5838 19.0337 6.37636C17.6291 6 12 6 12 6C12 6 6.37092 6 4.96773 6.37636C4.19279 6.5838 3.5838 7.19279 3.37636 7.96773C3 9.37093 3 12.3003 3 12.3003C3 12.3003 3 15.2297 3.37636 16.6329C3.5838 17.4078 4.19279 18.0168 4.96773 18.2242C6.37092 18.6006 12 18.6006 12 18.6006C12 18.6006 17.6291 18.6006 19.0323 18.2242C19.8072 18.0168 20.4162 17.4078 20.6236 16.6329C21 15.2297 21 12.3003 21 12.3003C21 12.3003 21 9.37093 20.6236 7.96773H20.6251ZM10.1997 15V9.60059L14.876 12.3003L10.1997 15Z" fill="#181616"/>
</svg>
