<svg width="16" height="16" viewBox="0 0 16 16" fill="none" xmlns="http://www.w3.org/2000/svg">
<path d="M9 3.09961C10.9591 3.49726 12.5017 5.0409 12.8994 7H15V9H12.8994C12.5017 10.959 10.959 12.5017 9 12.8994V15H7V12.8994C5.04096 12.5017 3.4983 10.959 3.10059 9H1V7H3.10059C3.49831 5.0409 5.04087 3.49726 7 3.09961V1H9V3.09961ZM8 5C6.34315 5 5 6.34315 5 8C5 9.65685 6.34315 11 8 11C9.65685 11 11 9.65685 11 8C11 6.34315 9.65685 5 8 5ZM8 7C8.55228 7 9 7.44772 9 8C9 8.55228 8.55228 9 8 9C7.44772 9 7 8.55228 7 8C7 7.44772 7.44772 7 8 7Z" fill="#181616"/>
</svg>
