<svg width="16" height="16" viewBox="0 0 16 16" fill="none" xmlns="http://www.w3.org/2000/svg">
<path fill-rule="evenodd" clip-rule="evenodd" d="M6.67681 2.51381C8.97596 2.51381 10.8398 4.37764 10.8398 6.67679C10.8398 8.97594 8.97596 10.8398 6.67681 10.8398C4.37766 10.8398 2.51383 8.97594 2.51383 6.67679C2.51383 4.37764 4.37766 2.51381 6.67681 2.51381ZM12.3536 6.67679C12.3536 3.54159 9.81201 1 6.67681 1C3.5416 1 1.00002 3.54159 1.00002 6.67679C1.00002 9.81199 3.5416 12.3536 6.67681 12.3536C9.81201 12.3536 12.3536 9.81199 12.3536 6.67679Z" fill="#181616"/>
<path fill-rule="evenodd" clip-rule="evenodd" d="M13.7018 14.9596L10.1318 11.3895L12.7282 11.3895L15 13.6614L13.7018 14.9596Z" fill="#181616"/>
</svg>
